STARTFONT 2.1
COMMENT Copyright (C) 1990-1991 EWT Consulting
COMMENT Portions Copyright (C) 1994-1995 Cronyx Ltd.
COMMENT Changes Copyright (C) 1996-1997 by Andrey A. Chernov, Moscow, Russia.
COMMENT Modified by Serge Vakulenko, <vak@cronyx.ru>
COMMENT Changes 1999 by Serge Winitzki.
COMMENT This software may be used, modified, copied, distributed, and sold,
COMMENT in both source and binary form provided that the copyright
COMMENT and these terms are retained. Under no circumstances is the author
COMMENT responsible for the proper functioning of this software, nor does
COMMENT the author assume any responsibility for damages incurred with its use.
COMMENT $XFree86$
FONT -Cronyx-Times-Bold-R-Normal--17-120-100-100-P-64-KOI8-R
SIZE 12 96 96
FONTBOUNDINGBOX 19 17 0 -4
STARTPROPERTIES 21
DEFAULT_CHAR 32
FONT_ASCENT 15
FONT_DESCENT 4
SPACING "P"
FONTNAME_REGISTRY ""
FOUNDRY "Cronyx"
FAMILY_NAME "Times"
WEIGHT_NAME "Bold"
SLANT "R"
SETWIDTH_NAME "Normal"
ADD_STYLE_NAME ""
AVERAGE_WIDTH 64
CHARSET_REGISTRY "KOI8"
CHARSET_ENCODING "R"
PIXEL_SIZE 17
POINT_SIZE 120
RESOLUTION_X 100
RESOLUTION_Y 100
COPYRIGHT "Copyright (C) 1990, 1991 EWT Consulting, Portions Copyright (C) 1994 Cronyx Ltd., Portions Copyright (C) 1996-1997 by Andrey A. Chernov, Moscow, Russia."
_XMBDFED_INFO "Edited with xmbdfed 4.3."
_XFREE86_GLYPH_RANGES "32_126 149 154 156_158 163 179 191_255"
ENDPROPERTIES
CHARS 167
STARTCHAR space
ENCODING 32
SWIDTH 313 0
DWIDTH 5 0
BBX 0 0 0 0
BITMAP
ENDCHAR
STARTCHAR exclam
ENCODING 33
SWIDTH 455 0
DWIDTH 5 0
BBX 2 11 1 0
BITMAP
C0
C0
C0
C0
C0
C0
C0
C0
00
C0
C0
ENDCHAR
STARTCHAR quotedbl
ENCODING 34
SWIDTH 1750 0
DWIDTH 7 0
BBX 5 4 1 7
BITMAP
D8
D8
D8
D8
ENDCHAR
STARTCHAR numbersign
ENCODING 35
SWIDTH 818 0
DWIDTH 9 0
BBX 9 11 0 0
BITMAP
1B00
1B00
1B00
7F80
3600
3600
3600
FF00
6C00
6C00
6C00
ENDCHAR
STARTCHAR dollar
ENCODING 36
SWIDTH 600 0
DWIDTH 9 0
BBX 7 15 1 -2
BITMAP
18
18
7E
DE
DE
D8
78
38
1C
1E
DE
FE
FC
18
18
ENDCHAR
STARTCHAR percent
ENCODING 37
SWIDTH 1273 0
DWIDTH 14 0
BBX 12 11 1 0
BITMAP
7030
DFE0
D8C0
D980
7300
0600
0CE0
19B0
31B0
61B0
C0E0
ENDCHAR
STARTCHAR ampersand
ENCODING 38
SWIDTH 1182 0
DWIDTH 13 0
BBX 11 11 1 0
BITMAP
3800
6C00
6C00
6C00
3800
39E0
6CC0
C780
C300
C780
7CC0
ENDCHAR
STARTCHAR quotesingle
ENCODING 39
SWIDTH 1250 0
DWIDTH 5 0
BBX 2 4 1 7
BITMAP
C0
C0
C0
C0
ENDCHAR
STARTCHAR parenleft
ENCODING 40
SWIDTH 400 0
DWIDTH 6 0
BBX 4 15 1 -3
BITMAP
30
30
60
60
C0
C0
C0
C0
C0
C0
C0
60
60
30
30
ENDCHAR
STARTCHAR parenright
ENCODING 41
SWIDTH 400 0
DWIDTH 6 0
BBX 4 15 1 -3
BITMAP
C0
C0
60
60
30
30
30
30
30
30
30
60
60
C0
C0
ENDCHAR
STARTCHAR asterisk
ENCODING 42
SWIDTH 1333 0
DWIDTH 8 0
BBX 6 6 1 5
BITMAP
30
FC
78
78
FC
30
ENDCHAR
STARTCHAR plus
ENCODING 43
SWIDTH 1429 0
DWIDTH 10 0
BBX 8 7 1 2
BITMAP
18
18
18
FF
18
18
18
ENDCHAR
STARTCHAR comma
ENCODING 44
SWIDTH 1333 0
DWIDTH 4 0
BBX 3 3 1 -1
BITMAP
60
60
C0
ENDCHAR
STARTCHAR hyphen
ENCODING 45
SWIDTH 6000 0
DWIDTH 6 0
BBX 6 1 0 5
BITMAP
FC
ENDCHAR
STARTCHAR period
ENCODING 46
SWIDTH 2000 0
DWIDTH 4 0
BBX 2 2 1 0
BITMAP
C0
C0
ENDCHAR
STARTCHAR slash
ENCODING 47
SWIDTH 500 0
DWIDTH 6 0
BBX 6 12 0 -1
BITMAP
0C
0C
18
18
18
30
30
60
60
60
C0
C0
ENDCHAR
STARTCHAR zero
ENCODING 48
SWIDTH 818 0
DWIDTH 9 0
BBX 7 11 1 0
BITMAP
38
6C
C6
C6
C6
C6
C6
C6
C6
6C
38
ENDCHAR
STARTCHAR one
ENCODING 49
SWIDTH 818 0
DWIDTH 9 0
BBX 6 11 2 0
BITMAP
30
70
F0
30
30
30
30
30
30
30
FC
ENDCHAR
STARTCHAR two
ENCODING 50
SWIDTH 818 0
DWIDTH 9 0
BBX 7 11 1 0
BITMAP
78
CC
06
06
06
0C
18
30
60
C6
FE
ENDCHAR
STARTCHAR three
ENCODING 51
SWIDTH 818 0
DWIDTH 9 0
BBX 7 11 1 0
BITMAP
78
CC
06
06
0C
38
0C
06
06
CC
78
ENDCHAR
STARTCHAR four
ENCODING 52
SWIDTH 818 0
DWIDTH 9 0
BBX 7 11 1 0
BITMAP
06
0E
1E
1E
36
66
66
C6
FE
06
06
ENDCHAR
STARTCHAR five
ENCODING 53
SWIDTH 818 0
DWIDTH 9 0
BBX 7 11 1 0
BITMAP
7E
60
C0
C0
F8
0C
06
06
06
CC
78
ENDCHAR
STARTCHAR six
ENCODING 54
SWIDTH 818 0
DWIDTH 9 0
BBX 7 11 1 0
BITMAP
0E
38
60
60
FC
E6
C6
C6
C6
C6
7C
ENDCHAR
STARTCHAR seven
ENCODING 55
SWIDTH 818 0
DWIDTH 9 0
BBX 7 11 1 0
BITMAP
FE
C6
06
0C
0C
0C
18
18
18
30
30
ENDCHAR
STARTCHAR eight
ENCODING 56
SWIDTH 818 0
DWIDTH 9 0
BBX 7 11 1 0
BITMAP
7C
C6
C6
C6
C6
7C
C6
C6
C6
C6
7C
ENDCHAR
STARTCHAR nine
ENCODING 57
SWIDTH 818 0
DWIDTH 9 0
BBX 7 11 1 0
BITMAP
7C
C6
C6
C6
C6
CE
7E
0C
0C
38
E0
ENDCHAR
STARTCHAR colon
ENCODING 58
SWIDTH 714 0
DWIDTH 5 0
BBX 2 7 1 0
BITMAP
C0
C0
00
00
00
C0
C0
ENDCHAR
STARTCHAR semicolon
ENCODING 59
SWIDTH 625 0
DWIDTH 5 0
BBX 3 8 0 -1
BITMAP
60
60
00
00
00
60
60
C0
ENDCHAR
STARTCHAR less
ENCODING 60
SWIDTH 1429 0
DWIDTH 10 0
BBX 8 7 1 1
BITMAP
03
0E
38
E0
38
0E
03
ENDCHAR
STARTCHAR equal
ENCODING 61
SWIDTH 3333 0
DWIDTH 10 0
BBX 8 3 1 3
BITMAP
FF
00
FF
ENDCHAR
STARTCHAR greater
ENCODING 62
SWIDTH 1429 0
DWIDTH 10 0
BBX 8 7 1 1
BITMAP
C0
70
1C
07
1C
70
C0
ENDCHAR
STARTCHAR question
ENCODING 63
SWIDTH 727 0
DWIDTH 8 0
BBX 6 11 1 0
BITMAP
78
CC
0C
0C
18
30
30
30
00
30
30
ENDCHAR
STARTCHAR at
ENCODING 64
SWIDTH 1143 0
DWIDTH 16 0
BBX 14 14 1 -3
BITMAP
0FC0
3870
6018
6018
C7EC
CCCC
CCCC
D98C
D98C
D998
CFF0
6000
7070
1FC0
ENDCHAR
STARTCHAR A
ENCODING 65
SWIDTH 1091 0
DWIDTH 12 0
BBX 12 11 0 0
BITMAP
0600
0600
0F00
0F00
1980
1980
30C0
3FC0
6060
6060
F0F0
ENDCHAR
STARTCHAR B
ENCODING 66
SWIDTH 1091 0
DWIDTH 12 0
BBX 10 11 1 0
BITMAP
FE00
6300
6180
6180
6300
7F00
6180
60C0
60C0
6180
FF00
ENDCHAR
STARTCHAR C
ENCODING 67
SWIDTH 1091 0
DWIDTH 12 0
BBX 10 11 1 0
BITMAP
1FC0
71C0
60C0
C000
C000
C000
C000
C000
60C0
7180
1F00
ENDCHAR
STARTCHAR D
ENCODING 68
SWIDTH 1182 0
DWIDTH 13 0
BBX 11 11 1 0
BITMAP
FF00
61C0
60C0
6060
6060
6060
6060
6060
60C0
61C0
FF00
ENDCHAR
STARTCHAR E
ENCODING 69
SWIDTH 1000 0
DWIDTH 11 0
BBX 9 11 1 0
BITMAP
FF80
6180
6000
6000
6600
7E00
6600
6000
6000
6180
FF80
ENDCHAR
STARTCHAR F
ENCODING 70
SWIDTH 1000 0
DWIDTH 11 0
BBX 9 11 1 0
BITMAP
FF80
6180
6000
6000
6600
7E00
6600
6000
6000
6000
F000
ENDCHAR
STARTCHAR G
ENCODING 71
SWIDTH 1182 0
DWIDTH 13 0
BBX 12 11 1 0
BITMAP
1FC0
71C0
60C0
C000
C000
C1F0
C060
C060
60C0
71C0
1F00
ENDCHAR
STARTCHAR H
ENCODING 72
SWIDTH 1182 0
DWIDTH 13 0
BBX 11 11 1 0
BITMAP
F1E0
60C0
60C0
60C0
60C0
7FC0
60C0
60C0
60C0
60C0
F1E0
ENDCHAR
STARTCHAR I
ENCODING 73
SWIDTH 545 0
DWIDTH 6 0
BBX 4 11 1 0
BITMAP
F0
60
60
60
60
60
60
60
60
60
F0
ENDCHAR
STARTCHAR J
ENCODING 74
SWIDTH 727 0
DWIDTH 8 0
BBX 6 11 1 0
BITMAP
3C
18
18
18
18
18
18
18
18
D8
70
ENDCHAR
STARTCHAR K
ENCODING 75
SWIDTH 1091 0
DWIDTH 12 0
BBX 11 11 1 0
BITMAP
F3C0
6180
6300
6600
6C00
7C00
7600
6300
6180
60C0
F1E0
ENDCHAR
STARTCHAR L
ENCODING 76
SWIDTH 1000 0
DWIDTH 11 0
BBX 9 11 1 0
BITMAP
F000
6000
6000
6000
6000
6000
6000
6000
6000
6180
FF80
ENDCHAR
STARTCHAR M
ENCODING 77
SWIDTH 1455 0
DWIDTH 16 0
BBX 14 11 1 0
BITMAP
E01C
7038
7038
7878
7878
6CD8
6CD8
6798
6798
6318
F33C
ENDCHAR
STARTCHAR N
ENCODING 78
SWIDTH 1182 0
DWIDTH 13 0
BBX 11 11 1 0
BITMAP
E1E0
70C0
70C0
78C0
6CC0
6CC0
66C0
63C0
63C0
61C0
F0C0
ENDCHAR
STARTCHAR O
ENCODING 79
SWIDTH 1182 0
DWIDTH 13 0
BBX 11 11 1 0
BITMAP
1F00
71C0
60C0
C060
C060
C060
C060
C060
60C0
71C0
1F00
ENDCHAR
STARTCHAR P
ENCODING 80
SWIDTH 909 0
DWIDTH 10 0
BBX 8 11 1 0
BITMAP
FC
66
63
63
66
7C
60
60
60
60
F0
ENDCHAR
STARTCHAR Q
ENCODING 81
SWIDTH 1000 0
DWIDTH 13 0
BBX 11 13 1 -2
BITMAP
1F00
71C0
60C0
C060
C060
C060
C060
C060
60C0
71C0
1F00
0700
0380
ENDCHAR
STARTCHAR R
ENCODING 82
SWIDTH 1000 0
DWIDTH 11 0
BBX 10 11 1 0
BITMAP
FC00
6600
6300
6300
6600
7C00
6C00
6600
6300
6180
F0C0
ENDCHAR
STARTCHAR S
ENCODING 83
SWIDTH 909 0
DWIDTH 10 0
BBX 8 11 1 0
BITMAP
3F
67
C3
C0
60
3C
06
03
C3
E6
FC
ENDCHAR
STARTCHAR T
ENCODING 84
SWIDTH 909 0
DWIDTH 10 0
BBX 10 11 0 0
BITMAP
FFC0
CCC0
0C00
0C00
0C00
0C00
0C00
0C00
0C00
0C00
1E00
ENDCHAR
STARTCHAR U
ENCODING 85
SWIDTH 1182 0
DWIDTH 13 0
BBX 11 11 1 0
BITMAP
F1E0
60C0
60C0
60C0
60C0
60C0
60C0
60C0
60C0
3180
1F00
ENDCHAR
STARTCHAR V
ENCODING 86
SWIDTH 1091 0
DWIDTH 12 0
BBX 12 11 0 0
BITMAP
F0F0
6060
6060
30C0
30C0
1980
1980
0F00
0F00
0600
0600
ENDCHAR
STARTCHAR W
ENCODING 87
SWIDTH 1455 0
DWIDTH 16 0
BBX 16 11 0 0
BITMAP
FFFF
6666
666C
33CC
33CC
1998
1998
0FF0
0FF0
0660
0660
ENDCHAR
STARTCHAR X
ENCODING 88
SWIDTH 1091 0
DWIDTH 12 0
BBX 12 11 0 0
BITMAP
F0F0
6060
30C0
1980
0F00
0600
0F00
1980
30C0
6060
F0F0
ENDCHAR
STARTCHAR Y
ENCODING 89
SWIDTH 1091 0
DWIDTH 12 0
BBX 12 11 0 0
BITMAP
F0F0
6060
30C0
1980
0F00
0600
0600
0600
0600
0600
0F00
ENDCHAR
STARTCHAR Z
ENCODING 90
SWIDTH 1000 0
DWIDTH 11 0
BBX 10 11 0 0
BITMAP
7FC0
6180
0300
0300
0600
0C00
1800
3000
3000
60C0
FFC0
ENDCHAR
STARTCHAR bracketleft
ENCODING 91
SWIDTH 400 0
DWIDTH 6 0
BBX 4 15 1 -3
BITMAP
F0
C0
C0
C0
C0
C0
C0
C0
C0
C0
C0
C0
C0
C0
F0
ENDCHAR
STARTCHAR backslash
ENCODING 92
SWIDTH 500 0
DWIDTH 6 0
BBX 6 12 0 -1
BITMAP
C0
C0
60
60
60
30
30
18
18
18
0C
0C
ENDCHAR
STARTCHAR bracketright
ENCODING 93
SWIDTH 400 0
DWIDTH 6 0
BBX 4 15 1 -3
BITMAP
F0
30
30
30
30
30
30
30
30
30
30
30
30
30
F0
ENDCHAR
STARTCHAR asciicircum
ENCODING 94
SWIDTH 2667 0
DWIDTH 8 0
BBX 6 3 1 9
BITMAP
30
78
CC
ENDCHAR
STARTCHAR underscore
ENCODING 95
SWIDTH 9000 0
DWIDTH 9 0
BBX 9 1 0 -4
BITMAP
FF80
ENDCHAR
STARTCHAR grave
ENCODING 96
SWIDTH 2000 0
DWIDTH 6 0
BBX 4 3 0 9
BITMAP
C0
60
30
ENDCHAR
STARTCHAR a
ENCODING 97
SWIDTH 1000 0
DWIDTH 8 0
BBX 7 8 1 0
BITMAP
78
CC
0C
7C
CC
CC
CC
7E
ENDCHAR
STARTCHAR b
ENCODING 98
SWIDTH 667 0
DWIDTH 8 0
BBX 7 12 1 0
BITMAP
E0
60
60
60
7C
76
66
66
66
66
66
3C
ENDCHAR
STARTCHAR c
ENCODING 99
SWIDTH 875 0
DWIDTH 7 0
BBX 6 8 1 0
BITMAP
78
CC
C0
C0
C0
C0
CC
78
ENDCHAR
STARTCHAR d
ENCODING 100
SWIDTH 667 0
DWIDTH 8 0
BBX 7 12 1 0
BITMAP
1C
0C
0C
0C
7C
CC
CC
CC
CC
CC
CC
7E
ENDCHAR
STARTCHAR e
ENCODING 101
SWIDTH 875 0
DWIDTH 7 0
BBX 6 8 1 0
BITMAP
78
CC
CC
FC
C0
C0
CC
78
ENDCHAR
STARTCHAR f
ENCODING 102
SWIDTH 583 0
DWIDTH 7 0
BBX 6 12 1 0
BITMAP
38
6C
60
60
F0
60
60
60
60
60
60
F0
ENDCHAR
STARTCHAR g
ENCODING 103
SWIDTH 750 0
DWIDTH 9 0
BBX 9 12 0 -4
BITMAP
3F00
6600
6600
6600
6600
3C00
6000
7E00
C300
C180
C180
7F00
ENDCHAR
STARTCHAR h
ENCODING 104
SWIDTH 750 0
DWIDTH 9 0
BBX 8 12 1 0
BITMAP
E0
60
60
60
7C
76
66
66
66
66
66
FF
ENDCHAR
STARTCHAR i
ENCODING 105
SWIDTH 455 0
DWIDTH 5 0
BBX 4 11 1 0
BITMAP
60
00
00
E0
60
60
60
60
60
60
F0
ENDCHAR
STARTCHAR j
ENCODING 106
SWIDTH 267 0
DWIDTH 4 0
BBX 3 15 1 -4
BITMAP
60
00
00
E0
60
60
60
60
60
60
60
60
60
60
C0
ENDCHAR
STARTCHAR k
ENCODING 107
SWIDTH 833 0
DWIDTH 10 0
BBX 9 12 1 0
BITMAP
E000
6000
6000
6000
6F00
6600
6C00
7800
7C00
6600
6300
F780
ENDCHAR
STARTCHAR l
ENCODING 108
SWIDTH 417 0
DWIDTH 5 0
BBX 4 12 1 0
BITMAP
E0
60
60
60
60
60
60
60
60
60
60
F0
ENDCHAR
STARTCHAR m
ENCODING 109
SWIDTH 1625 0
DWIDTH 13 0
BBX 12 8 1 0
BITMAP
FDC0
7760
6660
6660
6660
6660
6660
FFF0
ENDCHAR
STARTCHAR n
ENCODING 110
SWIDTH 1125 0
DWIDTH 9 0
BBX 8 8 1 0
BITMAP
FC
76
66
66
66
66
66
FF
ENDCHAR
STARTCHAR o
ENCODING 111
SWIDTH 875 0
DWIDTH 7 0
BBX 6 8 1 0
BITMAP
78
CC
CC
CC
CC
CC
CC
78
ENDCHAR
STARTCHAR p
ENCODING 112
SWIDTH 750 0
DWIDTH 9 0
BBX 7 12 1 -4
BITMAP
FC
76
66
66
66
66
66
7C
60
60
60
F0
ENDCHAR
STARTCHAR q
ENCODING 113
SWIDTH 667 0
DWIDTH 8 0
BBX 7 12 1 -4
BITMAP
7C
DC
CC
CC
CC
CC
CC
7C
0C
0C
0C
1E
ENDCHAR
STARTCHAR r
ENCODING 114
SWIDTH 1000 0
DWIDTH 8 0
BBX 7 8 1 0
BITMAP
FC
76
60
60
60
60
60
F0
ENDCHAR
STARTCHAR s
ENCODING 115
SWIDTH 750 0
DWIDTH 6 0
BBX 5 8 1 0
BITMAP
78
D8
C0
70
18
18
D8
F0
ENDCHAR
STARTCHAR t
ENCODING 116
SWIDTH 600 0
DWIDTH 6 0
BBX 5 10 1 0
BITMAP
60
60
F0
60
60
60
60
60
78
30
ENDCHAR
STARTCHAR u
ENCODING 117
SWIDTH 1125 0
DWIDTH 9 0
BBX 8 8 1 0
BITMAP
EE
66
66
66
66
66
6E
3F
ENDCHAR
STARTCHAR v
ENCODING 118
SWIDTH 1125 0
DWIDTH 9 0
BBX 8 8 1 0
BITMAP
FF
66
66
3C
3C
3C
18
18
ENDCHAR
STARTCHAR w
ENCODING 119
SWIDTH 1625 0
DWIDTH 13 0
BBX 12 8 1 0
BITMAP
FFF0
6660
6660
3FC0
3FC0
3FC0
1980
1980
ENDCHAR
STARTCHAR x
ENCODING 120
SWIDTH 1125 0
DWIDTH 9 0
BBX 8 8 1 0
BITMAP
E7
66
3C
18
18
3C
66
E7
ENDCHAR
STARTCHAR y
ENCODING 121
SWIDTH 750 0
DWIDTH 9 0
BBX 8 12 1 -4
BITMAP
FF
66
66
3C
3C
3C
18
18
30
30
F0
E0
ENDCHAR
STARTCHAR z
ENCODING 122
SWIDTH 1000 0
DWIDTH 8 0
BBX 7 8 1 0
BITMAP
FE
CC
18
18
30
30
66
FE
ENDCHAR
STARTCHAR braceleft
ENCODING 123
SWIDTH 533 0
DWIDTH 8 0
BBX 6 15 1 -3
BITMAP
1C
30
30
30
30
30
30
E0
30
30
30
30
30
30
1C
ENDCHAR
STARTCHAR bar
ENCODING 124
SWIDTH 333 0
DWIDTH 4 0
BBX 2 12 1 -1
BITMAP
C0
C0
C0
C0
C0
C0
C0
C0
C0
C0
C0
C0
ENDCHAR
STARTCHAR braceright
ENCODING 125
SWIDTH 533 0
DWIDTH 8 0
BBX 6 15 1 -3
BITMAP
E0
30
30
30
30
30
30
1C
30
30
30
30
30
30
E0
ENDCHAR
STARTCHAR asciitilde
ENCODING 126
SWIDTH 3333 0
DWIDTH 10 0
BBX 8 3 1 9
BITMAP
70
DB
0E
ENDCHAR
STARTCHAR bullet
ENCODING 149
SWIDTH 1750 0
DWIDTH 7 0
BBX 5 4 1 2
BITMAP
70
F8
F8
70
ENDCHAR
STARTCHAR space
ENCODING 154
SWIDTH 313 0
DWIDTH 5 0
BBX 0 0 0 0
BITMAP
ENDCHAR
STARTCHAR degree
ENCODING 156
SWIDTH 2000 0
DWIDTH 6 0
BBX 5 3 1 8
BITMAP
70
D8
70
ENDCHAR
STARTCHAR twosuperior
ENCODING 157
SWIDTH 833 0
DWIDTH 5 0
BBX 5 6 0 5
BITMAP
70
D8
30
60
C0
F8
ENDCHAR
STARTCHAR periodcentered
ENCODING 158
SWIDTH 3500 0
DWIDTH 7 0
BBX 3 2 3 4
BITMAP
E0
E0
ENDCHAR
STARTCHAR afii10071
ENCODING 163
SWIDTH 545 0
DWIDTH 6 0
BBX 6 11 1 0
BITMAP
78
78
00
78
CC
CC
FC
C0
C0
CC
78
ENDCHAR
STARTCHAR afii10023
ENCODING 179
SWIDTH 692 0
DWIDTH 9 0
BBX 9 13 1 0
BITMAP
7700
0000
FF80
6180
6000
6000
6600
7E00
6600
6000
6000
6180
FF80
ENDCHAR
STARTCHAR copyright
ENCODING 191
SWIDTH 1273 0
DWIDTH 14 0
BBX 12 11 1 0
BITMAP
1F80
70E0
6F60
D9B0
D830
D830
D830
D9B0
6F60
70E0
1F80
ENDCHAR
STARTCHAR afii10096
ENCODING 192
SWIDTH 1625 0
DWIDTH 13 0
BBX 11 8 1 0
BITMAP
F7C0
6C60
6C60
7C60
6C60
6C60
6C60
F7C0
ENDCHAR
STARTCHAR afii10065
ENCODING 193
SWIDTH 1000 0
DWIDTH 8 0
BBX 7 8 1 0
BITMAP
78
CC
0C
7C
CC
CC
CC
7E
ENDCHAR
STARTCHAR afii10066
ENCODING 194
SWIDTH 636 0
DWIDTH 7 0
BBX 6 11 1 0
BITMAP
0C
78
C0
F8
EC
CC
CC
CC
CC
CC
78
ENDCHAR
STARTCHAR afii10088
ENCODING 195
SWIDTH 900 0
DWIDTH 9 0
BBX 8 10 1 -2
BITMAP
FF
66
66
66
66
66
66
FF
03
03
ENDCHAR
STARTCHAR afii10069
ENCODING 196
SWIDTH 900 0
DWIDTH 9 0
BBX 8 10 1 -2
BITMAP
7F
36
36
36
36
36
66
FF
C3
C3
ENDCHAR
STARTCHAR afii10070
ENCODING 197
SWIDTH 875 0
DWIDTH 7 0
BBX 6 8 1 0
BITMAP
78
CC
CC
FC
C0
C0
CC
78
ENDCHAR
STARTCHAR afii10086
ENCODING 198
SWIDTH 714 0
DWIDTH 10 0
BBX 8 14 1 -4
BITMAP
3C
18
7E
DB
DB
DB
DB
DB
DB
7E
18
18
18
3C
ENDCHAR
STARTCHAR afii10068
ENCODING 199
SWIDTH 1000 0
DWIDTH 8 0
BBX 7 8 1 0
BITMAP
FE
66
60
60
60
60
60
F0
ENDCHAR
STARTCHAR afii10087
ENCODING 200
SWIDTH 1125 0
DWIDTH 9 0
BBX 8 8 1 0
BITMAP
E7
66
3C
18
18
3C
66
E7
ENDCHAR
STARTCHAR afii10074
ENCODING 201
SWIDTH 1250 0
DWIDTH 10 0
BBX 9 8 1 0
BITMAP
F780
6700
6F00
6F00
7B00
7B00
7300
F780
ENDCHAR
STARTCHAR afii10075
ENCODING 202
SWIDTH 909 0
DWIDTH 10 0
BBX 9 11 1 0
BITMAP
3600
1C00
0000
F780
6700
6F00
6F00
7B00
7B00
7300
F780
ENDCHAR
STARTCHAR afii10076
ENCODING 203
SWIDTH 1125 0
DWIDTH 9 0
BBX 8 8 1 0
BITMAP
FF
66
6C
78
6C
66
66
FF
ENDCHAR
STARTCHAR afii10077
ENCODING 204
SWIDTH 1125 0
DWIDTH 9 0
BBX 8 8 1 0
BITMAP
7F
36
36
36
36
36
36
EF
ENDCHAR
STARTCHAR afii10078
ENCODING 205
SWIDTH 1375 0
DWIDTH 11 0
BBX 10 8 1 0
BITMAP
E1C0
7380
7380
7F80
7F80
6D80
6D80
F3C0
ENDCHAR
STARTCHAR afii10079
ENCODING 206
SWIDTH 1125 0
DWIDTH 9 0
BBX 8 8 1 0
BITMAP
FF
66
66
7E
66
66
66
FF
ENDCHAR
STARTCHAR afii10080
ENCODING 207
SWIDTH 1000 0
DWIDTH 8 0
BBX 7 8 1 0
BITMAP
7C
C6
C6
C6
C6
C6
C6
7C
ENDCHAR
STARTCHAR afii10081
ENCODING 208
SWIDTH 1125 0
DWIDTH 9 0
BBX 8 8 1 0
BITMAP
FF
66
66
66
66
66
66
FF
ENDCHAR
STARTCHAR afii10097
ENCODING 209
SWIDTH 1125 0
DWIDTH 9 0
BBX 8 8 1 0
BITMAP
3F
66
66
66
3E
36
66
EF
ENDCHAR
STARTCHAR afii10082
ENCODING 210
SWIDTH 750 0
DWIDTH 9 0
BBX 7 12 1 -4
BITMAP
FC
66
66
66
66
66
66
7C
60
60
60
F0
ENDCHAR
STARTCHAR afii10083
ENCODING 211
SWIDTH 875 0
DWIDTH 7 0
BBX 6 8 1 0
BITMAP
78
CC
C0
C0
C0
C0
CC
78
ENDCHAR
STARTCHAR afii10084
ENCODING 212
SWIDTH 1125 0
DWIDTH 9 0
BBX 8 8 1 0
BITMAP
FF
DB
18
18
18
18
18
3C
ENDCHAR
STARTCHAR afii10085
ENCODING 213
SWIDTH 750 0
DWIDTH 9 0
BBX 8 12 1 -4
BITMAP
FF
66
66
3C
3C
3C
18
18
30
30
F0
E0
ENDCHAR
STARTCHAR afii10072
ENCODING 214
SWIDTH 1875 0
DWIDTH 15 0
BBX 12 8 2 0
BITMAP
FFF0
6660
36C0
1F80
36C0
6660
6660
FFF0
ENDCHAR
STARTCHAR afii10067
ENCODING 215
SWIDTH 1000 0
DWIDTH 8 0
BBX 7 8 1 0
BITMAP
F8
6C
6C
7C
66
66
66
FC
ENDCHAR
STARTCHAR afii10094
ENCODING 216
SWIDTH 1000 0
DWIDTH 8 0
BBX 7 8 1 0
BITMAP
F0
60
60
7C
66
66
66
FC
ENDCHAR
STARTCHAR afii10093
ENCODING 217
SWIDTH 1500 0
DWIDTH 12 0
BBX 11 8 1 0
BITMAP
F1E0
60C0
60C0
7CC0
66C0
66C0
66C0
FDE0
ENDCHAR
STARTCHAR afii10073
ENCODING 218
SWIDTH 1000 0
DWIDTH 8 0
BBX 7 8 1 0
BITMAP
7C
C6
06
1C
06
06
C6
7C
ENDCHAR
STARTCHAR afii10090
ENCODING 219
SWIDTH 1625 0
DWIDTH 13 0
BBX 12 8 1 0
BITMAP
FFF0
6660
6660
6660
6660
6660
6660
FFF0
ENDCHAR
STARTCHAR afii10095
ENCODING 220
SWIDTH 1000 0
DWIDTH 8 0
BBX 7 8 1 0
BITMAP
7C
C6
06
3E
06
06
C6
7C
ENDCHAR
STARTCHAR afii10091
ENCODING 221
SWIDTH 1300 0
DWIDTH 13 0
BBX 12 10 1 -2
BITMAP
FFF0
6660
6660
6660
6660
6660
6660
FFF0
0030
0030
ENDCHAR
STARTCHAR afii10089
ENCODING 222
SWIDTH 1125 0
DWIDTH 9 0
BBX 8 8 1 0
BITMAP
FF
66
66
66
3E
06
06
0F
ENDCHAR
STARTCHAR afii10092
ENCODING 223
SWIDTH 1125 0
DWIDTH 9 0
BBX 8 8 1 0
BITMAP
F8
F0
30
3E
33
33
33
7E
ENDCHAR
STARTCHAR afii10048
ENCODING 224
SWIDTH 1636 0
DWIDTH 18 0
BBX 16 11 1 0
BITMAP
F0F8
638E
6306
6603
6603
7E03
6603
6603
6306
638E
F0F8
ENDCHAR
STARTCHAR afii10017
ENCODING 225
SWIDTH 1091 0
DWIDTH 12 0
BBX 12 11 0 0
BITMAP
0600
0600
0F00
0F00
1980
1980
30C0
3FC0
6060
6060
F0F0
ENDCHAR
STARTCHAR afii10018
ENCODING 226
SWIDTH 1091 0
DWIDTH 12 0
BBX 10 11 1 0
BITMAP
FF80
6180
6000
6000
7F00
6180
60C0
60C0
60C0
6180
FF00
ENDCHAR
STARTCHAR afii10040
ENCODING 227
SWIDTH 1000 0
DWIDTH 13 0
BBX 11 13 1 -2
BITMAP
F1E0
60C0
60C0
60C0
60C0
60C0
60C0
60C0
60C0
60C0
FFE0
0060
0060
ENDCHAR
STARTCHAR afii10021
ENCODING 228
SWIDTH 923 0
DWIDTH 12 0
BBX 10 13 1 -2
BITMAP
7FC0
3180
3180
3180
3180
3180
3180
3180
3180
6180
FFC0
C0C0
C0C0
ENDCHAR
STARTCHAR afii10022
ENCODING 229
SWIDTH 1000 0
DWIDTH 11 0
BBX 9 11 1 0
BITMAP
FF80
6180
6000
6000
6600
7E00
6600
6000
6000
6180
FF80
ENDCHAR
STARTCHAR afii10038
ENCODING 230
SWIDTH 875 0
DWIDTH 14 0
BBX 12 16 1 -3
BITMAP
0F00
0600
3FC0
6660
C630
C630
C630
C630
C630
C630
C630
6660
3FC0
0600
0600
0F00
ENDCHAR
STARTCHAR afii10020
ENCODING 231
SWIDTH 909 0
DWIDTH 10 0
BBX 9 11 1 0
BITMAP
FF80
6180
6000
6000
6000
6000
6000
6000
6000
6000
F000
ENDCHAR
STARTCHAR afii10039
ENCODING 232
SWIDTH 1273 0
DWIDTH 14 0
BBX 12 11 1 0
BITMAP
F0F0
6060
30C0
1980
0F00
0600
0F00
1980
30C0
6060
F0F0
ENDCHAR
STARTCHAR afii10026
ENCODING 233
SWIDTH 1182 0
DWIDTH 13 0
BBX 11 11 1 0
BITMAP
F1E0
60C0
60C0
61C0
63C0
66C0
6CC0
78C0
70C0
60C0
F1E0
ENDCHAR
STARTCHAR afii10027
ENCODING 234
SWIDTH 1000 0
DWIDTH 13 0
BBX 11 13 1 0
BITMAP
1B00
0E00
F1E0
60C0
60C0
61C0
63C0
66C0
6CC0
78C0
70C0
60C0
F1E0
ENDCHAR
STARTCHAR afii10028
ENCODING 235
SWIDTH 1091 0
DWIDTH 12 0
BBX 11 11 1 0
BITMAP
F3C0
6180
6300
6600
6C00
7C00
7600
6300
6180
60C0
F1E0
ENDCHAR
STARTCHAR afii10029
ENCODING 236
SWIDTH 1182 0
DWIDTH 13 0
BBX 11 11 1 0
BITMAP
3FE0
18C0
18C0
18C0
18C0
18C0
18C0
18C0
18C0
18C0
F1E0
ENDCHAR
STARTCHAR afii10030
ENCODING 237
SWIDTH 1455 0
DWIDTH 16 0
BBX 14 11 1 0
BITMAP
E01C
7038
7038
7878
7878
6CD8
6CD8
6798
6798
6318
F33C
ENDCHAR
STARTCHAR afii10031
ENCODING 238
SWIDTH 1182 0
DWIDTH 13 0
BBX 11 11 1 0
BITMAP
F1E0
60C0
60C0
60C0
60C0
7FC0
60C0
60C0
60C0
60C0
F1E0
ENDCHAR
STARTCHAR afii10032
ENCODING 239
SWIDTH 1182 0
DWIDTH 13 0
BBX 11 11 1 0
BITMAP
1F00
71C0
60C0
C060
C060
C060
C060
C060
60C0
71C0
1F00
ENDCHAR
STARTCHAR afii10033
ENCODING 240
SWIDTH 1182 0
DWIDTH 13 0
BBX 11 11 1 0
BITMAP
FFE0
60C0
60C0
60C0
60C0
60C0
60C0
60C0
60C0
60C0
F1E0
ENDCHAR
STARTCHAR afii10049
ENCODING 241
SWIDTH 1273 0
DWIDTH 14 0
BBX 12 11 1 0
BITMAP
1FF0
3060
3060
3060
3060
1FE0
0C60
1860
3060
3060
F0F0
ENDCHAR
STARTCHAR afii10034
ENCODING 242
SWIDTH 1091 0
DWIDTH 12 0
BBX 10 11 1 0
BITMAP
FF00
6180
60C0
60C0
60C0
6180
7F00
6000
6000
6000
F000
ENDCHAR
STARTCHAR afii10035
ENCODING 243
SWIDTH 1091 0
DWIDTH 12 0
BBX 11 11 1 0
BITMAP
1FC0
71C0
60C0
C000
C000
C000
C000
C060
60C0
71C0
1F00
ENDCHAR
STARTCHAR afii10036
ENCODING 244
SWIDTH 1091 0
DWIDTH 12 0
BBX 10 11 1 0
BITMAP
FFC0
CCC0
0C00
0C00
0C00
0C00
0C00
0C00
0C00
0C00
1E00
ENDCHAR
STARTCHAR afii10037
ENCODING 245
SWIDTH 1182 0
DWIDTH 13 0
BBX 12 11 1 0
BITMAP
F0F0
6060
30C0
18C0
1980
0D80
0F00
0700
0600
0600
3C00
ENDCHAR
STARTCHAR afii10024
ENCODING 246
SWIDTH 1727 0
DWIDTH 19 0
BBX 18 11 1 0
BITMAP
79E780
30C300
18C600
0CCC00
06D800
07F800
0DEC00
18C600
30C300
60C180
F1E3C0
ENDCHAR
STARTCHAR afii10019
ENCODING 247
SWIDTH 1091 0
DWIDTH 12 0
BBX 10 11 1 0
BITMAP
FE00
6300
6180
6180
6300
7F00
6180
60C0
60C0
6180
FF00
ENDCHAR
STARTCHAR afii10046
ENCODING 248
SWIDTH 1091 0
DWIDTH 12 0
BBX 10 11 1 0
BITMAP
F000
6000
6000
6000
7F00
6180
60C0
60C0
60C0
6180
FF00
ENDCHAR
STARTCHAR afii10045
ENCODING 249
SWIDTH 1455 0
DWIDTH 16 0
BBX 14 11 1 0
BITMAP
F03C
6018
6018
6018
7F18
6198
60D8
60D8
60D8
6198
FF3C
ENDCHAR
STARTCHAR afii10025
ENCODING 250
SWIDTH 1000 0
DWIDTH 11 0
BBX 9 11 1 0
BITMAP
7E00
C300
0180
0180
0300
1E00
0300
0180
0180
C300
7E00
ENDCHAR
STARTCHAR afii10042
ENCODING 251
SWIDTH 1636 0
DWIDTH 18 0
BBX 16 11 1 0
BITMAP
F3CF
6186
6186
6186
6186
6186
6186
6186
6186
6186
FFFF
ENDCHAR
STARTCHAR afii10047
ENCODING 252
SWIDTH 1000 0
DWIDTH 11 0
BBX 9 11 1 0
BITMAP
3E00
6300
C180
0180
0180
3F80
0180
0180
C180
6300
3E00
ENDCHAR
STARTCHAR afii10043
ENCODING 253
SWIDTH 1385 0
DWIDTH 18 0
BBX 16 13 1 -2
BITMAP
F3CF
6186
6186
6186
6186
6186
6186
6186
6186
6186
FFFF
0003
0003
ENDCHAR
STARTCHAR afii10041
ENCODING 254
SWIDTH 1182 0
DWIDTH 13 0
BBX 11 11 1 0
BITMAP
F1E0
60C0
60C0
60C0
60C0
3FC0
00C0
00C0
00C0
00C0
01E0
ENDCHAR
STARTCHAR afii10044
ENCODING 255
SWIDTH 1273 0
DWIDTH 14 0
BBX 12 11 1 0
BITMAP
FC00
D800
1800
1800
1FC0
1860
1830
1830
1830
1860
3FC0
ENDCHAR
ENDFONT
